<svg xmlns="http://www.w3.org/2000/svg" width="24" height="24" viewBox="0 0 24 24" fill="none">
<path d="M11.75 6.01563C12.2997 5.39282 13.104 5 14 5C15.6569 5 17 6.34315 17 8C17 9.65685 15.6569 11 14 11C13.104 11 12.2997 10.6072 11.75 9.98437M14 18.5H5V17.75C5 15.2647 7.01472 13.25 9.5 13.25C11.9853 13.25 14 15.2647 14 17.75V18.5ZM14 18.5H18.5V17.75C18.5 15.2647 16.4853 13.25 14 13.25C13.1804 13.25 12.4119 13.4691 11.75 13.852M12.5 8C12.5 9.65685 11.1569 11 9.5 11C7.84315 11 6.5 9.65685 6.5 8C6.5 6.34315 7.84315 5 9.5 5C11.1569 5 12.5 6.34315 12.5 8Z"  stroke-width="1.5" stroke-linecap="round" stroke-linejoin="round"/>
</svg>

