<svg xmlns="http://www.w3.org/2000/svg" width="97" height="96" viewBox="0 0 97 96" fill="none">
  <path fill-rule="evenodd" clip-rule="evenodd" d="M37.4532 82.2814C37.2833 81.675 37.0965 81.0518 36.8927 80.4287C36.7229 79.8897 36.5361 79.3507 36.3493 78.7444C36.2918 78.561 36.2237 78.3811 36.1455 78.2054L35.7549 77.2285C35.7549 77.0264 35.5851 76.8075 35.4832 76.6054C35.3813 76.4033 35.2455 75.9822 35.1096 75.6622C34.9738 75.3422 34.9228 75.2243 34.8209 75.0221C34.719 74.82 34.5662 74.4158 34.4134 74.1126C34.2605 73.8095 34.2096 73.6747 34.1077 73.4558L33.7001 72.5968L33.3435 71.9399L32.9189 71.0978L32.0868 69.683L31.7132 69.043L31.2207 68.2177C31.1018 68.0156 30.966 67.8135 30.8301 67.6113L30.3037 66.786L29.9131 66.2134C29.7263 65.9271 29.5225 65.6576 29.3357 65.3881L28.9451 64.8323L28.3168 63.9733C28.1809 63.8217 28.062 63.6365 27.9432 63.4849L27.179 62.5248L26.9073 62.0701C26.5337 61.6322 26.177 61.1943 25.8034 60.7732L24.7505 59.5942L24.3769 59.2237L23.5788 58.3815L23.1372 57.9436C22.8995 57.691 22.6447 57.4383 22.39 57.2025L21.8975 56.7478L21.1673 56.0572L20.6409 55.5856L19.9446 54.8951L19.3842 54.4403C19.1464 54.2214 18.8917 54.0192 18.637 53.8171L18.0766 53.3624L17.3124 52.7729L16.735 52.3518L15.9538 51.7792C15.75 51.6444 15.5632 51.4928 15.3594 51.3749C15.0973 51.1762 14.8252 50.9907 14.5443 50.8191L13.9669 50.4149L13.1178 49.8928L12.5404 49.5222L11.012 48.5959L9.90815 47.9895L9.53455 47.7874C9.04206 47.518 8.5326 47.2653 8.02314 47.0127L7.73444 46.9116L6.49475 46.3221L5.93434 46.0863L4.94937 45.6484L4.30405 45.3789L3.38702 45.0252L2.69075 44.7557L2.06241 44.5368C2.2662 45.3789 2.48696 46.2211 2.7417 47.0632C2.84359 47.4337 2.94548 47.7369 3.04738 48.0569C3.14927 48.3769 3.30211 48.8485 3.42098 49.2359C3.53986 49.6233 3.64175 49.8928 3.77761 50.2128C3.91346 50.5328 4.13423 51.1728 4.30405 51.6444L4.69464 52.6213L5.05126 53.4466L5.56073 54.5919C5.6796 54.8782 5.81546 55.1477 5.93434 55.4172L6.37587 56.293C6.44486 56.4551 6.52427 56.6126 6.61362 56.7646C6.80042 57.1183 6.93628 57.4046 7.1061 57.7078L7.76841 58.8868C7.98917 59.291 8.22692 59.6784 8.44769 60.0489C9.04206 61.0258 9.68739 62.0195 10.3837 62.9964L11.0629 63.9565C11.1648 64.1249 11.2837 64.2765 11.4026 64.4449L12.2007 65.4723C12.4385 65.7923 12.6932 66.0955 12.931 66.3818C13.2181 66.1728 13.5253 65.9923 13.848 65.8429C14.6456 65.5478 15.4936 65.4105 16.3444 65.4386H17.1595C17.997 65.498 18.8155 65.7153 19.571 66.0787C20.3353 66.4304 21.022 66.9284 21.5919 67.544C22.1648 68.1491 22.6145 68.8583 22.9165 69.6325C23.2029 70.3976 23.3467 71.208 23.341 72.0241C23.3432 72.854 23.1877 73.6768 22.8825 74.4495C22.7128 74.8536 22.5082 75.2424 22.2711 75.6116L22.7127 75.9653L23.5788 76.5885L24.309 77.1275L25.26 77.7675L25.4468 77.9023L25.7015 78.0707L27.0601 78.9297L28.13 79.5697C28.7583 79.9402 29.4206 80.3108 30.0659 80.6476L30.7792 81.035L32.5963 81.9277L33.5812 82.3824H33.6831L34.8379 82.8877L36.0436 83.3761L36.621 83.5951L37.3852 83.8814L37.7079 83.9993L37.4022 82.8035L37.4532 82.2814Z" fill="#2E90FA"/>
  <path fill-rule="evenodd" clip-rule="evenodd" d="M54.741 86.1215C54.741 85.9531 54.741 85.7678 54.656 85.5994C54.656 85.0604 54.4862 84.5383 54.3843 83.9993C53.2259 77.847 51.256 71.8727 48.5255 66.2302L48.6444 66.4155L52.6691 62.3732C53.1359 61.8929 53.433 61.2753 53.5157 60.6132C53.5983 59.9511 53.4622 59.2803 53.1277 58.7015C52.2532 57.2686 51.3066 55.8801 50.2916 54.5414C49.8854 53.9961 49.3075 53.6007 48.6494 53.4177C47.9912 53.2347 47.2903 53.2745 46.6575 53.5308L42.0214 55.333C41.837 55.0538 41.6386 54.784 41.427 54.5245L40.9685 53.9014C40.7647 53.6319 40.5609 53.3624 40.3401 53.1097C40.1193 52.8571 40.0175 52.6887 39.8476 52.4866L39.2363 51.7286L42.2251 47.0632C42.5973 46.4917 42.766 45.8132 42.7045 45.1357C42.6429 44.4581 42.3546 43.8204 41.8855 43.3241C40.7376 42.0985 39.5245 40.9347 38.2513 39.8377C37.7376 39.3904 37.089 39.1247 36.4068 39.0821C35.7247 39.0394 35.0475 39.2222 34.4813 39.6019L30.1339 42.5493L29.8961 42.3472L29.1829 41.7577L28.5375 41.2188L27.8073 40.6461L27.5865 40.4777C27.9432 39.6019 28.8432 37.3281 29.5225 35.5764C29.768 34.9409 29.7945 34.2427 29.5978 33.5907C29.4012 32.9387 28.9926 32.3696 28.4356 31.9721C27.0601 30.9952 25.6336 30.0857 24.1731 29.2436C23.5814 28.9072 22.8942 28.7743 22.2184 28.8657C21.5427 28.9571 20.9163 29.2676 20.4371 29.7489L16.684 33.5216L16.0387 33.1848L15.1047 32.7132L14.3914 32.3763L13.5084 31.9553L12.9649 31.7531C13.0668 31.0626 13.4744 28.3846 13.7631 26.3129C13.8655 25.6416 13.739 24.9557 13.4037 24.3638C13.0683 23.7718 12.5434 23.3079 11.912 23.0455C10.3497 22.4054 8.77035 21.8328 7.15705 21.3612C6.50295 21.1613 5.80028 21.1836 5.16043 21.4246C4.52057 21.6656 3.98013 22.1116 3.62477 22.6918C2.38507 24.6624 0.68686 27.4246 0.635914 27.5088C0.635914 28.8225 0.500057 30.1362 0.500057 31.4668C0.496359 34.0359 0.672261 36.6022 1.0265 39.1471H1.19632L2.04543 39.4166L3.03039 39.7366L3.86252 40.0398L4.8305 40.3766L5.66262 40.6966L6.59664 41.084C6.88534 41.1851 7.14007 41.303 7.41178 41.4209L8.32882 41.8083L9.14396 42.1956L10.061 42.6167L10.8422 43.0041L11.7422 43.4589L12.5234 43.8799L13.3895 44.3515L14.1537 44.7894L15.0198 45.2947L15.767 45.7495L16.5991 46.2716L18.1615 47.3158L18.8747 47.8211C19.1464 48.0064 19.4181 48.1917 19.6729 48.3938L20.3691 48.9159L21.1503 49.5222L21.8466 50.0612C22.1013 50.2633 22.3391 50.4823 22.6108 50.6844L23.2731 51.257L24.0033 51.8971L24.6656 52.4866L25.3789 53.1603C25.5996 53.3455 25.8034 53.5477 26.0072 53.7498L26.7205 54.4403L27.3318 55.0635L28.0111 55.7877L28.5885 56.4109L29.2508 57.152L29.8282 57.8089L30.4565 58.5668L31.0169 59.2405L31.6283 60.0321L32.1547 60.7058L32.7491 61.5143L33.2586 62.2048C33.4454 62.4743 33.6322 62.7606 33.836 63.0301C34.0398 63.2996 34.1586 63.5017 34.3115 63.7544C34.4643 64.007 34.6851 64.3102 34.8549 64.5965C35.0247 64.8828 35.1606 65.0849 35.3304 65.3207L35.8399 66.1965L36.2814 66.9208C36.4512 67.224 36.621 67.5271 36.7739 67.8303C36.9267 68.1335 37.0626 68.3187 37.1814 68.5714C37.3003 68.824 37.5211 69.1777 37.6739 69.4809C37.8268 69.7841 37.9287 69.9862 38.0475 70.2388C38.1664 70.4914 38.3702 70.8788 38.523 71.1988C38.6759 71.5189 38.7608 71.6873 38.8627 71.9399C38.9646 72.1926 39.1684 72.5968 39.3042 72.9336L39.6438 73.6747C39.7797 74.0284 39.9156 74.3821 40.0684 74.7358L40.3401 75.4432C40.5099 75.8306 40.6458 76.2348 40.7817 76.639C40.8654 76.8316 40.9391 77.0284 41.0024 77.2285C41.2289 77.8349 41.4326 78.4412 41.6138 79.0476C41.8006 79.6707 41.9874 80.2939 42.1572 80.9171C42.1572 81.1192 42.2591 81.3045 42.327 81.5066C42.395 81.7087 42.5478 82.3824 42.6497 82.8203C42.7516 83.2582 42.7686 83.2582 42.8195 83.4772C42.8705 83.6962 43.0063 84.3362 43.0912 84.7741C43.1761 85.212 43.1931 85.1952 43.2271 85.3973V85.6836L45.3668 86.1552L46.148 86.3068H46.3008L47.3028 86.4921L48.1349 86.6099L49.0689 86.7447L50.0029 86.8626L50.9539 86.9636C51.2936 86.9636 51.5993 86.9636 51.888 87.0479H52.6691L54.9278 87.3342C54.9278 87.3342 54.9278 87.25 54.9278 87.1994C54.8598 86.8289 54.7919 86.4752 54.741 86.1215Z" fill="#2E90FA"/>
  <path fill-rule="evenodd" clip-rule="evenodd" d="M96.1264 36.6544C96.1264 36.3681 94.632 33.7406 93.4602 31.7195C93.1217 31.128 92.5934 30.6658 91.9595 30.4064C91.3256 30.147 90.6225 30.1052 89.9619 30.2878C88.3389 30.7261 86.7404 31.249 85.1729 31.8542C84.5226 32.0993 83.9754 32.5559 83.6206 33.1494C83.2659 33.7429 83.1246 34.4382 83.22 35.1217C83.4577 37.2102 83.7974 40.0398 83.8653 40.6293C82.6426 41.1514 81.4199 41.6904 80.2311 42.3135L76.6139 38.3218C76.1566 37.8171 75.5434 37.4771 74.8704 37.3552C74.1973 37.2333 73.5025 37.3363 72.8948 37.6481C71.3834 38.4229 69.94 39.3324 68.5135 40.1745C67.9412 40.5486 67.5106 41.1007 67.2892 41.744C67.0679 42.3873 67.0684 43.0854 67.2907 43.7283C68.004 45.8 68.989 48.6464 69.0909 49.017C68.3606 49.5559 67.6304 50.1286 66.9171 50.7012L62.6886 47.619C62.1456 47.2052 61.4799 46.9808 60.7951 46.9808C60.1103 46.9808 59.4446 47.2052 58.9016 47.619C57.5909 48.6747 56.3381 49.7991 55.1485 50.9876C54.6661 51.4654 54.3576 52.0888 54.2716 52.7596C54.1855 53.4304 54.3267 54.1105 54.673 54.693L57.509 59.51C55.689 61.551 53.988 63.6936 52.4144 65.9271C52.5163 66.1797 52.6182 66.4492 52.7371 66.7187L53.2465 67.965C53.4503 68.4535 53.6371 68.9419 53.8239 69.4304C54.0107 69.9188 54.1466 70.2556 54.2994 70.6767C54.4523 71.0978 54.6561 71.6704 54.8259 72.1757C54.9957 72.681 55.1146 73.0179 55.2674 73.4221L55.7599 74.9716L56.1335 76.2011C56.3033 76.7401 56.4392 77.2622 56.592 77.8854C56.7449 78.5086 56.8128 78.6939 56.9316 79.0981C57.0505 79.5023 57.0505 79.6202 57.1185 79.8728C60.9225 72.2022 66.3215 65.4177 72.9601 59.9658C79.5986 54.514 87.3261 50.5184 95.6339 48.2422C96.0569 45.7077 96.3009 43.147 96.3641 40.5787C96.3641 39.9556 96.3641 39.3492 96.3641 38.726V38.1365C96.3641 38.1365 96.1943 36.9576 96.1264 36.6544Z" fill="#1570EF"/>
  <path fill-rule="evenodd" clip-rule="evenodd" d="M95.4811 52.1665L94.8867 52.3181C94.2584 52.4866 93.63 52.6718 93.0187 52.8739L91.3204 53.4129L90.76 53.6487L89.7072 54.0361C89.491 54.1028 89.2808 54.1873 89.0788 54.2887L88.1278 54.6593L87.4655 54.9456C87.1598 55.0635 86.8711 55.1982 86.5655 55.3498C86.2598 55.5014 86.1239 55.5519 85.9032 55.653L85.0371 56.0572L84.3748 56.4109L83.5257 56.832L82.8633 57.2025L82.0312 57.6573L81.3859 58.0278L80.5708 58.5163L79.9424 58.9036L79.1273 59.4258L78.5329 59.8131L77.6838 60.3858L77.1234 60.7732L76.2743 61.4132L75.7818 61.7669L74.8138 62.5248L74.4572 62.7943L73.1496 63.8891L71.9608 64.9502L71.5872 65.3039L70.7381 66.0955L70.2966 66.5334L69.5324 67.2745L69.0739 67.7629C68.8361 67.9987 68.6153 68.2514 68.3946 68.4872L67.9021 69.0093C67.6983 69.2619 67.4776 69.4977 67.2568 69.7335L66.7983 70.2893L66.1699 71.0304L65.7284 71.5862L65.134 72.3441L64.6925 72.9168C64.5057 73.1694 64.3019 73.4389 64.1321 73.6916L63.7075 74.2811L63.1471 75.0895L62.7565 75.6622C62.5697 75.9485 62.3829 76.218 62.2131 76.5043C62.0844 76.689 61.9653 76.8801 61.8565 77.077L61.2961 77.9865L60.9904 78.5086L60.379 79.6034L60.1583 79.9739C59.9035 80.4623 59.6318 80.9676 59.3941 81.4729L59.2412 81.7592C59.0544 82.1635 58.8506 82.5677 58.6638 82.9888C58.477 83.4098 58.494 83.3593 58.4091 83.5446C58.3242 83.7298 58.1204 84.1846 57.9845 84.5215C57.8487 84.8583 57.7977 84.9425 57.7128 85.1615L57.3392 86.071L57.0845 86.7615C56.9996 86.9636 56.9316 87.1826 56.8467 87.3847C57.7128 87.1826 58.545 86.9636 59.411 86.711L61.6017 86.0373C61.9244 85.9194 62.264 85.8183 62.5867 85.6836L64.0132 85.1615L64.9982 84.7741L65.8303 84.4204L67.0021 83.9151L67.8172 83.5446L68.7172 83.1067H68.8022L69.2777 82.8709L70.2287 82.3824L71.4004 81.7255C71.825 81.5066 72.1986 81.2708 72.5892 81.0518C73.5572 80.4623 74.5591 79.8223 75.561 79.1486L76.512 78.4581L77.0045 78.1212L78.0574 77.3296L78.9744 76.6222C78.7678 76.3256 78.5807 76.0162 78.414 75.6959C78.0518 74.945 77.833 74.1341 77.7687 73.3042V72.4957C77.8983 70.819 78.6555 69.251 79.8915 68.0998C80.5148 67.5404 81.2336 67.0955 82.0142 66.786C83.588 66.1838 85.3314 66.1838 86.9051 66.786C87.3196 66.9508 87.7176 67.1538 88.0938 67.3924L88.4335 66.9545L89.0788 66.0955L89.6053 65.3713C89.843 65.0681 90.0468 64.7481 90.2676 64.4281L90.3864 64.2428C90.4371 64.1548 90.4938 64.0704 90.5563 63.9901L91.4223 62.6427C91.6431 62.3059 91.8639 61.9522 92.0677 61.5816C92.2715 61.2111 92.8149 60.3016 93.1545 59.6616C93.2904 59.4258 93.4262 59.19 93.5451 58.9542C93.8508 58.3647 94.1565 57.7583 94.4452 57.152C94.7339 56.5457 94.7678 56.4951 94.9037 56.1751L95.4131 55.013C95.583 54.6087 95.7358 54.2214 95.8886 53.8171C95.8886 53.6319 96.0415 53.4466 96.1094 53.2445C96.1773 53.0424 96.2962 52.7224 96.3981 52.4866L96.5 52.1665H95.4811Z" fill="#1570EF"/>
  <path d="M60.43 11.0703C59.4966 10.1572 58.446 9.37002 57.3053 8.72912C57.1948 8.66779 57.0701 8.636 56.9435 8.63687C56.8169 8.63774 56.6927 8.67124 56.5831 8.73409C56.4735 8.79694 56.3822 8.88697 56.3183 8.99535C56.2544 9.10374 56.2199 9.22674 56.2184 9.3523V19.8959C56.2059 20.2821 56.0468 20.6495 55.7728 20.9243C55.4988 21.1992 55.1303 21.3612 54.741 21.378H47.2179C46.8284 21.3656 46.458 21.2078 46.1809 20.9361C45.9038 20.6643 45.7404 20.2988 45.7235 19.9127V9.31862C45.7144 9.1944 45.6746 9.07432 45.6076 8.96899C45.5406 8.86366 45.4484 8.77633 45.3393 8.71472C45.2302 8.65311 45.1074 8.61912 44.9819 8.61575C44.8564 8.61239 44.7319 8.63976 44.6196 8.69544C43.4567 9.36184 42.3791 10.1649 41.41 11.0871C40.0826 12.4087 39.0517 13.9936 38.3851 15.7379C37.7184 17.4823 37.431 19.3466 37.5416 21.2088C37.6523 23.071 38.1585 24.889 39.0271 26.5436C39.8957 28.1983 41.107 29.6521 42.5818 30.81C43.3826 31.4895 44.274 32.0563 45.231 32.4942H56.626C57.616 32.0497 58.5459 31.4839 59.3941 30.81C60.867 29.6453 62.0739 28.184 62.9352 26.5224C63.7965 24.8609 64.2925 23.037 64.3904 21.1713C64.4883 19.3056 64.1859 17.4405 63.5032 15.6992C62.8205 13.958 61.773 12.3803 60.43 11.0703Z" fill="#2E90FA"/>
  <path d="M53.3484 34.8859H48.5595C47.8748 34.8859 47.3198 35.4364 47.3198 36.1154V42.1451C47.3198 42.8242 47.8748 43.3746 48.5595 43.3746H53.3484C54.0331 43.3746 54.5881 42.8242 54.5881 42.1451V36.1154C54.5881 35.4364 54.0331 34.8859 53.3484 34.8859Z" fill="#2E90FA"/>
</svg>