<svg xmlns="http://www.w3.org/2000/svg" width="24" height="24" viewBox="0 0 24 24" fill="none">
<path d="M9.5 17V12.5C9.5 11.6716 8.82843 11 8 11H6.5C5.67157 11 5 11.6716 5 12.5V17C5 17.8284 5.67157 18.5 6.5 18.5H8C8.82843 18.5 9.5 17.8284 9.5 17ZM9.5 17V9.5C9.5 8.67157 10.1716 8 11 8H12.5C13.3284 8 14 8.67157 14 9.5V17M9.5 17C9.5 17.8284 10.1716 18.5 11 18.5H12.5C13.3284 18.5 14 17.8284 14 17M14 17V6.5C14 5.67157 14.6716 5 15.5 5H17C17.8284 5 18.5 5.67157 18.5 6.5V17C18.5 17.8284 17.8284 18.5 17 18.5H15.5C14.6716 18.5 14 17.8284 14 17Z"  stroke-width="1.5" stroke-linecap="round" stroke-linejoin="round"/>
</svg>